<svg width="101" height="112" viewBox="0 0 101 112" fill="none" xmlns="http://www.w3.org/2000/svg">
<path d="M54.6883 65.7081H82.1274V85.8272C75.5287 90.75 66.3428 93.9605 56.2312 93.9605C34.3226 93.9605 19.7486 77.694 19.7486 55.5772V55.2681C19.7486 34.6971 34.7736 17.3367 54.5459 17.3367C68.1942 17.3367 76.312 21.7838 84.596 28.8469L96.5591 14.578C85.5217 5.20814 74.0334 0 55.3292 0C23.0004 0 0 25.4937 0 55.5772L0 55.8864C0 87.2065 22.0747 111.154 55.6378 111.154C74.6505 111.154 89.818 103.473 100.381 94.4123V49.2751H54.6883V65.7081Z" fill="#153D5E"/>
</svg>
